<?xml version="1.0" encoding="UTF-8" standalone="no"?>
<!DOCTYPE svg PUBLIC "-//W3C//DTD SVG 1.1//EN" "http://www.w3.org/Graphics/SVG/1.1/DTD/svg11.dtd">
<svg width="100%" height="100%" viewBox="0 0 81 88" version="1.1" xmlns="http://www.w3.org/2000/svg" xmlns:xlink="http://www.w3.org/1999/xlink" xml:space="preserve" xmlns:serif="http://www.serif.com/" style="fill-rule:evenodd;clip-rule:evenodd;">
    <g transform="matrix(1,0,0,1,-2.75,0)">
        <g>
            <path d="M69.333,24.545C72.172,25.993 75.759,24.645 77.342,21.537C78.025,20.197 77.89,17.739 77.023,15.299C76.117,12.749 76.718,10.053 76.718,10.053C76.718,10.053 74.855,11.947 72.305,12.751C69.494,13.638 67.758,14.926 67.059,16.297C65.475,19.406 66.493,23.099 69.333,24.545ZM44.133,22.447C49.144,22.447 53.206,18.544 53.206,13.729C53.206,11.654 51.261,8.718 48.305,6.26C45.216,3.692 44.133,0 44.133,0C44.133,0 42.876,3.496 39.878,6.082C36.572,8.935 35.06,11.606 35.06,13.729C35.06,18.544 39.122,22.447 44.133,22.447L44.133,22.447Z" style="fill:none;stroke:black;stroke-width:1px;"/>
            <path d="M59.721,22.151C63.747,22.646 67.45,19.473 67.991,15.067C68.225,13.166 66.992,10.286 64.893,7.745C62.7,5.089 62.245,1.603 62.245,1.603C62.245,1.603 60.842,4.679 58.142,6.751C55.165,9.036 53.649,11.332 53.411,13.276C52.869,17.683 55.695,21.657 59.721,22.152L59.721,22.151ZM19.775,24.995C22.535,23.401 23.359,19.66 21.614,16.638C20.862,15.336 18.727,14.112 16.208,13.509C13.576,12.88 11.642,10.908 11.642,10.908C11.642,10.908 12.216,13.501 11.502,16.078C10.715,18.92 10.849,21.077 11.619,22.41C13.363,25.431 17.014,26.588 19.775,24.995L19.775,24.995Z" style="fill:none;stroke:black;stroke-width:1px;"/>
            <path d="M13.197,30.114C14.764,28.179 14.317,25.219 12.199,23.504C11.285,22.764 9.385,22.469 7.378,22.735C5.282,23.013 3.319,22.116 3.319,22.116C3.319,22.116 4.464,23.847 4.665,25.926C4.886,28.22 5.588,29.755 6.523,30.512C8.641,32.228 11.629,32.05 13.196,30.114L13.197,30.114ZM75.362,31.378C77.324,32.911 80.276,32.412 81.954,30.264C82.677,29.338 82.94,27.433 82.639,25.432C82.324,23.341 83.187,21.363 83.187,21.363C83.187,21.363 81.475,22.538 79.4,22.775C77.111,23.036 75.588,23.765 74.847,24.713C73.169,26.861 73.399,29.845 75.362,31.378L75.362,31.378ZM29.397,21.916C33.35,21.003 35.744,16.756 34.746,12.43C34.315,10.564 32.172,8.279 29.33,6.609C26.36,4.864 24.74,1.743 24.74,1.743C24.74,1.743 24.474,5.114 22.646,7.984C20.63,11.15 19.992,13.826 20.432,15.734C21.431,20.061 25.445,22.828 29.397,21.916Z" style="fill:none;stroke:black;stroke-width:1px;"/>
        </g>
        <path d="M44.495,87.656C62.287,87.656 74.956,74.782 80.185,57.137C83.987,47.033 86.685,15.662 55.876,17.245C55.063,17.185 44.603,19.902 40.113,26.183C39.49,27.055 41.779,24.013 41.779,24.013C41.779,24.013 41.649,23.131 40.789,22.259C38.486,19.284 33.876,17.899 29.406,17.899C3.048,17.899 5.632,45.127 8.634,57.137C11.826,70.674 26.703,87.656 44.495,87.656Z" style="fill:none;stroke:black;stroke-width:1px;"/>
        <path d="M44.208,87.656C61.991,87.656 73.231,73.951 77.689,58.778C81.385,45.026 78.187,21.203 56.12,23.534C55.307,23.474 47.09,24.672 43.728,28.901C43.663,28.983 44.673,29.392 46.105,32.227C46.105,32.227 46.105,31.087 43.728,28.901C40.415,26.343 33.627,25.03 33.142,24.969C8.717,21.928 8.079,46.659 10.492,58.778C12.863,69.701 26.425,87.656 44.208,87.656Z" style="fill:none;stroke:black;stroke-width:1px;"/>
        <path id="a" d="M44.869,87.656C61.437,87.656 72.277,75.694 74.219,58.403C75.939,43.095 70.674,31.081 55.18,29.937C54.422,29.882 50.036,29.514 44.15,33.874C43.978,34.001 44.734,34.041 43.359,33.874C41.213,31.108 36.884,29.938 34.504,29.938C18.843,29.938 13.846,42.976 15.304,58.404C16.814,74.389 28.302,87.656 44.87,87.656L44.869,87.656Z" style="fill:white;fill-opacity:0.11;"/>
        <path d="M43.45,33.712C43.672,33.739 43.847,33.762 43.998,33.783C44.011,33.766 44.028,33.75 44.048,33.736C46.529,31.898 48.922,30.755 51.18,30.173C52.715,29.778 53.941,29.686 55.009,29.754C55.068,29.757 55.072,29.757 55.193,29.766C69.779,30.842 76.273,41.66 74.39,58.423C72.385,76.274 61.117,87.828 44.869,87.828C28.869,87.828 16.723,75.248 15.133,58.42C13.485,40.982 20.024,29.765 34.504,29.765C37.563,29.765 41.532,31.294 43.45,33.712Z" style="fill:none;stroke:black;stroke-width:1px;"/>
        <path d="M44.542,34.012C44.531,34.057 44.505,34.117 44.462,34.212C44.172,34.348 44.172,34.348 44.164,34.327L44.121,34.321L43.99,34.303C43.813,34.277 43.604,34.25 43.317,34.215L43.175,34.198L43.087,34.085C41.295,31.775 37.44,30.281 34.504,30.281C20.388,30.281 14.023,41.199 15.646,58.371C17.212,74.948 29.151,87.313 44.869,87.313C60.839,87.313 71.901,75.969 73.878,58.365C75.732,41.864 69.408,31.332 55.154,30.28L54.977,30.268C53.959,30.204 52.787,30.292 51.309,30.672C49.172,31.223 46.904,32.295 44.543,34.012L44.542,34.012ZM44.204,33.639L44.228,33.642C44.231,33.632 44.233,33.627 44.204,33.639Z" style="fill:none;stroke:white;stroke-width:0.69px;"/>
        <path d="M44.281,62.906C49.407,62.906 53.563,58.66 53.563,53.421C53.563,50.409 48.947,44.118 46.338,39.499C44.411,36.088 44.281,33.688 44.281,33.688C44.281,33.688 43.966,36.23 42.071,39.575C39.447,44.209 35,50.379 35,53.421C35,58.66 39.155,62.906 44.281,62.906Z" style="fill:none;fill-rule:nonzero;stroke:black;stroke-width:1px;"/>
        <path d="M44.281,58.094C48.458,58.094 51.844,54.546 51.844,50.17C51.844,47.655 48.083,42.399 45.957,38.542C44.386,35.692 44.281,33.688 44.281,33.688C44.281,33.688 44.024,35.811 42.481,38.605C40.342,42.476 36.719,47.63 36.719,50.17C36.719,54.546 40.105,58.094 44.281,58.094Z" style="fill:none;fill-rule:nonzero;stroke:black;stroke-width:1px;"/>
    </g>
</svg>
